<svg width="20" height="19" viewBox="0 0 20 19" fill="none" xmlns="http://www.w3.org/2000/svg">
<path d="M3.35 3.63999C2.45 2.99999 2.23 1.75999 2.86 0.849988C3.49 -0.0500116 4.74 -0.270012 5.65 0.359988C6.55 0.999988 6.77 2.23999 6.14 3.14999C5.5 4.04999 4.26 4.26999 3.35 3.63999ZM14 17H4.5L2 4.99999H0L2.85 19H14V17ZM14.23 13H9.35L8.32 8.89999C9.9 9.78999 11.6 10.44 13.47 10.12V7.98999C11.84 8.29999 10.03 7.71999 8.78 6.73999L7.14 5.46999C6.91 5.28999 6.65 5.16999 6.38 5.08999C6.06 4.99999 5.72 4.96999 5.39 5.02999H5.37C4.14 5.24999 3.32 6.41999 3.53 7.63999L5.44 16H14.68L18.5 19L20 17.5L14.23 13Z" fill="#082837"/>
</svg>
